<?xml version="1.0" encoding="iso-8859-1"?>
<!-- Generator: Adobe Illustrator 19.0.0, SVG Export Plug-In . SVG Version: 6.00 Build 0)  -->
<svg version="1.1" id="Capa_1" xmlns="http://www.w3.org/2000/svg" xmlns:xlink="http://www.w3.org/1999/xlink" x="0px" y="0px"
	 viewBox="0 0 512.026 512.026" style="enable-background:new 0 0 512.026 512.026;" xml:space="preserve">
<g>
	<g>
		<path d="M256.043,153.613c-56.465,0-102.4,45.935-102.4,102.4c0,30.225,13.244,57.344,34.133,76.109v-10.513
			c0-17.348,15.078-31.462,33.604-31.462h69.316c18.534,0,33.613,14.106,33.613,31.462v10.513
			c20.898-18.756,34.133-45.884,34.133-76.109C358.443,199.548,312.499,153.613,256.043,153.613z M256.043,264.546
			c-23.526,0-42.667-19.14-42.667-42.667c0-23.526,19.14-42.667,42.667-42.667c23.526,0,42.667,19.14,42.667,42.667
			C298.709,245.406,279.569,264.546,256.043,264.546z"/>
	</g>
</g>
<g>
	<g>
		<path d="M290.697,307.213H221.38c-9.122,0-16.538,6.46-16.538,14.396v22.955c0.137,0.077,0.265,0.162,0.401,0.239
			c31.01,17.8,70.596,17.8,101.598,0c0.136-0.077,0.264-0.162,0.401-0.239v-22.955C307.243,313.673,299.819,307.213,290.697,307.213
			z"/>
	</g>
</g>
<g>
	<g>
		<circle cx="256.043" cy="221.88" r="25.6"/>
	</g>
</g>
<g>
	<g>
		<path d="M509.15,215.48c-1.835-1.613-4.25-2.33-6.707-2.065l-43.571,5.453c-5.589,0.7-10.837-3.046-12.186-8.695
			c-4.753-19.857-12.561-38.758-23.202-56.192c-3.012-4.915-1.929-11.23,2.5-14.686l31.556-24.542
			c1.937-1.502,3.132-3.755,3.277-6.204c0.154-2.441-0.751-4.83-2.483-6.571l-48.273-48.273c-1.724-1.732-4.122-2.551-6.562-2.483
			c-2.449,0.154-4.702,1.348-6.212,3.277l-24.533,31.556c-3.447,4.446-9.762,5.513-14.694,2.509
			c-17.425-10.641-36.335-18.449-56.175-23.202c-5.658-1.357-9.395-6.596-8.695-12.194l5.444-43.571
			c0.307-2.423-0.452-4.873-2.074-6.707c-1.613-1.835-3.951-2.884-6.4-2.884h-68.267c-2.449,0-4.779,1.05-6.4,2.884
			c-1.621,1.843-2.372,4.284-2.074,6.707l5.453,43.571c0.7,5.589-3.038,10.837-8.687,12.194
			c-19.857,4.753-38.758,12.561-56.183,23.202c-4.915,2.995-11.238,1.946-14.686-2.509l-24.542-31.556
			c-1.502-1.937-3.763-3.123-6.212-3.277c-2.432-0.162-4.83,0.751-6.562,2.483l-48.273,48.273c-1.732,1.732-2.637,4.122-2.483,6.571
			c0.154,2.449,1.348,4.702,3.277,6.204l31.556,24.542c4.437,3.447,5.513,9.771,2.5,14.686
			c-10.641,17.434-18.449,36.335-23.202,56.192c-1.348,5.649-6.588,9.421-12.186,8.695l-43.58-5.453
			c-2.449-0.265-4.873,0.452-6.707,2.065C1.05,217.101,0,219.431,0,221.88v68.267c0,2.449,1.05,4.779,2.884,6.4
			c1.835,1.613,4.258,2.364,6.707,2.065l43.571-5.453c5.615-0.751,10.846,3.038,12.194,8.695
			c4.753,19.857,12.561,38.758,23.202,56.192c3.012,4.915,1.929,11.23-2.5,14.686l-31.556,24.542
			c-1.937,1.502-3.123,3.755-3.277,6.204c-0.154,2.449,0.751,4.83,2.483,6.571l48.273,48.273c1.732,1.732,4.139,2.637,6.562,2.483
			c2.449-0.154,4.702-1.34,6.212-3.277l24.542-31.556c3.447-4.437,9.771-5.504,14.694-2.509
			c17.425,10.641,36.335,18.449,56.175,23.202c5.658,1.357,9.395,6.596,8.695,12.194l-5.453,43.571
			c-0.307,2.423,0.452,4.864,2.074,6.707c1.613,1.835,3.951,2.884,6.4,2.884h68.267c2.449,0,4.779-1.05,6.4-2.884
			c1.621-1.835,2.372-4.284,2.074-6.707l-5.444-43.571c-0.7-5.589,3.038-10.837,8.687-12.194
			c19.857-4.753,38.758-12.561,56.183-23.202c4.932-2.995,11.238-1.937,14.686,2.509l24.542,31.556
			c1.502,1.929,3.763,3.123,6.212,3.277c2.432,0.111,4.83-0.751,6.562-2.483l48.273-48.273c1.732-1.732,2.637-4.122,2.483-6.571
			c-0.154-2.441-1.348-4.702-3.277-6.204l-31.556-24.542c-4.437-3.448-5.513-9.771-2.5-14.686
			c10.641-17.434,18.449-36.335,23.202-56.192c1.348-5.658,6.554-9.446,12.186-8.695l43.571,5.453
			c2.458,0.299,4.873-0.452,6.707-2.065c1.835-1.621,2.884-3.951,2.884-6.4V221.88C512.043,219.431,510.993,217.101,509.15,215.48z
			 M336.623,344.017c-4.975,4.557-10.325,8.661-15.974,12.297c-19.277,12.382-42.027,19.208-65.05,19.123
			c-36.147-0.137-70.997-17.323-93.372-45.645c-16.529-20.924-25.651-47.113-25.651-73.779c0-65.877,53.589-119.467,119.467-119.467
			s119.467,53.589,119.467,119.467C375.509,289.319,361.182,321.549,336.623,344.017z"/>
	</g>
</g>
<g>
</g>
<g>
</g>
<g>
</g>
<g>
</g>
<g>
</g>
<g>
</g>
<g>
</g>
<g>
</g>
<g>
</g>
<g>
</g>
<g>
</g>
<g>
</g>
<g>
</g>
<g>
</g>
<g>
</g>
</svg>
